<?xml version="1.0" encoding="UTF-8"?>
<svg width="718px" height="577px" viewBox="0 0 718 577" version="1.1" xmlns="http://www.w3.org/2000/svg" xmlns:xlink="http://www.w3.org/1999/xlink">
    <title>形状</title>
    <g id="页面-1" stroke="none" stroke-width="1" fill="none" fill-rule="evenodd">
        <g id="画板" transform="translate(-153, -223)" fill="#000000" fill-rule="nonzero">
            <path d="M153,441.812963 C153,521.265589 176.81265,596.047768 225.771156,646.324976 C246.058556,666.92164 269.829125,664.407005 283.36968,647.661235 C295.692751,632.313204 291.806943,613.530608 278.142536,598.343282 C243.002894,559.277443 223.33093,502.978505 223.33093,441.812963 C223.33093,381.019162 242.444841,324.720702 278.142536,285.654864 C292.086208,270.373765 295.971538,251.684799 283.36968,236.34246 C269.549859,219.876765 245.500025,216.802843 225.771156,237.679197 C180.164315,285.995029 153,363.012439 153,441.812963 Z M289,441.522258 C289,487.54141 301.863987,530.754119 326.714105,557.776993 C344.880382,576.969636 371.181395,576.032722 384.07283,559.210792 C395.35735,544.26269 391.893117,526.263048 380.602337,510.624085 C368.962918,494.745758 359.823679,465.845234 359.823679,441.522258 C359.823679,417.291971 369.009146,388.542901 380.602337,372.240311 C391.605635,356.595137 395.35735,338.874993 384.07283,323.932624 C371.181395,307.104483 344.880382,305.889027 326.714105,325.086925 C301.863987,352.383085 289,395.602006 289,441.522258 Z M440,441.950945 C440,468.451669 454.21574,491.418202 475.567248,503.959773 L475.567248,759.151562 C475.567248,783.154733 490.647539,800 511.948976,800 C534.389159,800 548.429891,784.088042 548.429891,759.151562 L548.429891,503.959773 C569.588269,491.418202 584,468.352148 584,441.950945 C584,402.183907 551.877605,370 511.948976,370 C472.125256,370 440,402.183907 440,441.950945 Z M638.963581,559.210792 C651.853954,576.032722 678.144925,576.969636 696.195298,557.776993 C721.138507,530.754119 734,487.54141 734,441.522258 C734,395.602006 721.138507,352.383085 696.195298,325.086925 C678.144925,305.889027 651.853954,307.104483 638.963581,323.932624 C627.589439,338.874993 631.440185,356.595137 642.43888,372.240311 C654.019999,388.542901 663.208843,417.291971 663.208843,441.522258 C663.208843,465.845234 654.072947,494.745758 642.43888,510.624085 C631.146566,526.263048 627.589439,544.26269 638.963581,559.210792 Z M740.668773,647.661235 C754.2067,664.407005 777.964996,666.92164 798.252765,646.324976 C847.093513,596.047768 871,521.265589 871,441.812963 C871,363.012439 843.742494,285.995029 798.252765,237.679197 C778.524296,216.802843 754.48874,219.876765 740.668773,236.34246 C727.972186,251.684799 731.958991,270.373765 745.893686,285.654864 C781.583715,324.720702 800.690739,381.019162 800.690739,441.812963 C800.690739,502.978505 781.024415,559.277443 745.893686,598.343282 C732.236251,613.530608 728.254226,632.313204 740.668773,647.661235 Z" id="形状"></path>
        </g>
    </g>
</svg>