<?xml version="1.0" encoding="UTF-8"?>
<svg width="1024px" height="1024px" viewBox="0 0 1024 1024" version="1.1" xmlns="http://www.w3.org/2000/svg" xmlns:xlink="http://www.w3.org/1999/xlink">
    <title>画板</title>
    <g id="画板" stroke="none" stroke-width="1" fill="none" fill-rule="evenodd">
        <path d="M381.04747,673 C397.469376,673 411,659.469103 411,642.952454 C411,626.53059 397.469376,613 381.04747,613 C364.530624,613 351,626.53059 351,642.952454 C351,659.469103 364.530624,673 381.04747,673 Z M326.110612,544 C342.592356,544 356,530.542508 356,514 C356,497.456978 342.592356,484 326.110612,484 C309.629381,484 296,497.456978 296,514 C296,530.542508 309.629381,544 326.110612,544 Z M381.04747,413 C397.469376,413 411,399.468863 411,383.04747 C411,366.530624 397.469376,353 381.04747,353 C364.530624,353 351,366.530624 351,383.04747 C351,399.468863 364.530624,413 381.04747,413 Z M510.889133,357 C527.370224,357 541,343.542623 541,326.999743 C541,310.457377 527.370224,297 510.889133,297 C494.407529,297 481,310.457377 481,326.999743 C481,343.542623 494.407529,357 510.889133,357 Z M695.889904,544 C712.368524,544 726,530.542508 726,514 C726,497.456978 712.368524,484 695.889904,484 C679.411283,484 666,497.456978 666,514 C666,530.542508 679.411283,544 695.889904,544 Z M640.952016,673 C657.471992,673 671,659.469103 671,642.952454 C671,626.53059 657.471992,613 640.952016,613 C624.531087,613 611,626.53059 611,642.952454 C611,659.469103 624.531087,673 640.952016,673 Z M461.163468,562.843165 C482.715279,584.385612 514.814561,584.385612 536.365332,562.843165 C540.001567,559.20903 545.728272,551.136523 550.683136,543.836042 L653.066321,395.496831 C659.053946,386.587355 657.827315,378.128834 651.943642,372.019643 C645.961215,366.13489 637.177286,365.040753 628.583069,370.797181 L479.954319,473.234071 C472.779564,478.090668 464.670803,484.040362 461.163468,487.545134 C439.612177,509.08706 439.612177,541.397872 461.163468,562.843165 Z M511.388726,849 C697.226702,849 848,698.3983 848,512.500259 C848,326.602275 697.226702,176 511.388726,176 C325.776404,176 175,326.602275 175,512.500259 C175,698.3983 325.776404,849 511.388726,849 Z M511.935493,784 C362.078288,784 241,662.821957 241,513 C241,363.177939 362.078288,242 511.935493,242 C661.794252,242 783,363.177939 783,513 C783,662.821957 661.794252,784 511.935493,784 Z" id="形状" fill="#000000" fill-rule="nonzero"></path>
    </g>
</svg>